:version 1.10
:name ASF
:units
  mass 1
  length 1
  angle deg
:documentation
  ASF file generated by Kaydara
:root
  axis xyz
  order  tx ty tz rx ry rz
  position 0 0 0
  orientation 0 0 0
:bonedata
  begin
    id 1
    name LeftUpLegDummy
    direction 1 -2.30186e-007 -8.31532e-007
    length 2.93387
    axis 0 0 0 xyz
  end
  begin
    id 2
    name LeftUpLeg
    direction -1.82929e-007 -1 -1.48925e-009
    length 17.3336
    axis -3.48766 0.00143442 -0.000521554 xyz
    dof rx ry rz
  end
  begin
    id 3
    name LeftLeg
    direction -1.82929e-007 -1 -5.23717e-011
    length 14.9995
    axis 3.68178 -0.00654042 -0.000282425 xyz
    dof rx ry rz
  end
  begin
    id 4
    name LeftFoot
    direction 8.31532e-007 -4.54534e-011 1
    length 6.74421
    axis 1.87234e-006 4.66016e-005 -5.96866e-006 xyz
    dof rx ry rz
  end
  begin
    id 5
    name LeftToes
    direction 0.00818058 -0.00485161 0.999955
    length 3.85048
    axis 1.06247e-005 4.65869e-005 -5.96999e-006 xyz
    dof rx ry rz
  end
  begin
    id 6
    name SpineDummy
    direction -5.8607e-008 0.943407 -0.331637
    length 5.93572
    axis 0 0 0 xyz
  end
  begin
    id 7
    name Spine
    direction -1.04988e-007 0.999988 0.00495137
    length 10.1015
    axis -0.001389 0.000121417 6.61666e-006 xyz
    dof rx ry rz
  end
  begin
    id 8
    name Spine1
    direction 0 0 0
    length 0
    axis -0.001389 0.00012144 6.56766e-006 xyz
    dof rx ry rz
  end
  begin
    id 9
    name RightShoulderDummy
    direction -0.98348 0.17941 -0.0240696
    length 3.59882
    axis -0.001389 0.00012144 6.56766e-006 xyz
  end
  begin
    id 10
    name RightShoulder
    direction -0.978693 0.204882 0.0135597
    length 2.70001
    axis 0.215806 0.000203631 -0.00679732 xyz
    dof rx ry rz
  end
  begin
    id 11
    name RightArm
    direction -1 3.85509e-006 8.31394e-007
    length 10.2459
    axis -23.2009 -0.134239 -0.964098 xyz
    dof rx ry rz
  end
  begin
    id 12
    name RightForeArm
    direction -1 3.85569e-006 8.3129e-007
    length 8.16799
    axis -9.92322 0.0658061 0.17887 xyz
    dof rx ry rz
  end
  begin
    id 13
    name RightHand
    direction -0.992843 -0.0414604 0.112003
    length 5.28593
    axis -0.00960638 0.00330669 -0.185225 xyz
    dof rx ry rz
  end
  begin
    id 14
    name LeftShoulder1Dummy
    direction 0.983523 0.179172 -0.0240748
    length 3.59866
    axis -0.001389 0.00012144 6.56766e-006 xyz
  end
  begin
    id 15
    name LeftShoulder1
    direction 0.978627 0.205195 0.0135605
    length 2.70019
    axis -0.001389 0.00012144 6.57583e-006 xyz
    dof rx ry rz
  end
  begin
    id 16
    name LeftArm
    direction 1 3.51895e-006 -8.60188e-007
    length 10.2459
    axis -23.1894 0.134785 0.967513 xyz
    dof rx ry rz
  end
  begin
    id 17
    name LeftForeArm
    direction 1 3.51921e-006 -7.32029e-007
    length 8.16799
    axis -9.91835 -0.0656957 -0.177789 xyz
    dof rx ry rz
  end
  begin
    id 18
    name LeftHand
    direction 0.992938 -0.0411636 0.11126
    length 5.32135
    axis -0.00960237 -0.00340661 0.185177 xyz
    dof rx ry rz
  end
  begin
    id 19
    name HEadDummy
    direction 1.01974e-006 0.999861 -0.016675
    length 2.99946
    axis -0.001389 0.00012144 6.56766e-006 xyz
  end
  begin
    id 20
    name HEad
    direction -0.0222689 0.980941 0.193023
    length 5.12695
    axis -0.001389 0.00012144 6.56766e-006 xyz
    dof rx ry rz
  end
  begin
    id 21
    name RightUpLegDummy
    direction -1 2.30186e-007 8.31532e-007
    length 2.93387
    axis 0 0 0 xyz
  end
  begin
    id 22
    name RightUpLeg
    direction -1.82966e-007 -1 1.56832e-007
    length 17.3336
    axis -3.4909 -0.000906625 0.00028951 xyz
    dof rx ry rz
  end
  begin
    id 23
    name RightLeg
    direction -1.82786e-007 -1 -1.80317e-007
    length 14.9995
    axis 3.68513 0.0193739 -0.131021 xyz
    dof rx ry rz
  end
  begin
    id 24
    name RightFoot
    direction 8.31721e-007 -4.63324e-011 1
    length 6.74421
    axis 4.81691e-005 -0.120479 -0.188785 xyz
    dof rx ry rz
  end
  begin
    id 25
    name RightToes
    direction 0.00124746 -0.014064 0.9999
    length 3.85082
    axis 0.000481921 0.542163 -0.142575 xyz
    dof rx ry rz
  end
:hierarchy
  begin
    root LeftUpLegDummy SpineDummy RightUpLegDummy
    LeftUpLegDummy LeftUpLeg
    LeftUpLeg LeftLeg
    LeftLeg LeftFoot
    LeftFoot LeftToes
    SpineDummy Spine
    Spine Spine1
    Spine1 RightShoulderDummy LeftShoulder1Dummy HEadDummy
    RightShoulderDummy RightShoulder
    RightShoulder RightArm
    RightArm RightForeArm
    RightForeArm RightHand
    LeftShoulder1Dummy LeftShoulder1
    LeftShoulder1 LeftArm
    LeftArm LeftForeArm
    LeftForeArm LeftHand
    HEadDummy HEad
    RightUpLegDummy RightUpLeg
    RightUpLeg RightLeg
    RightLeg RightFoot
    RightFoot RightToes
  end

:SAMPLES-PER-SECOND 30
:FULLY-SPECIFIED
:DEGREES
181
root  42.8884 34.6887 57.0843 -170.58 33.098 -178.167
LeftUpLeg  -17.384 6.52315 10.297
LeftLeg  11.7869 -1.88909 -0.270342
LeftFoot  10.8926 0.0411017 -0.431098
LeftToes  -28.1125 2.48695e-006 -1.03773e-007
Spine  3.77579 0.381624 3.00051
Spine1  7.33048 0.710912 5.6336
RightShoulder  0.15027 6.95186 8.61522
RightArm  -38.1865 -11.1953 60.8981
RightForeArm  28.839 14.3698 2.58515
RightHand  0.507972 -6.40213 -8.68496
LeftShoulder1  0.0143373 0.00344868 -8.105
LeftArm  3.31197 3.43022 -80.5944
LeftForeArm  30.88 -27.3635 -5.22655
LeftHand  0.0254142 1.52718 1.52971
HEad  3.29068 28.8794 -2.87017
RightUpLeg  -12.1265 -15.5917 6.80704
RightLeg  11.4493 -2.3024 -0.312483
RightFoot  -2.75943 -0.00487926 0.083234
RightToes  -17.385 -0.0673658 -0.155471
182
root  42.9555 34.6727 57.1489 -170.924 32.9342 -178.222
LeftUpLeg  -17.605 10.0367 9.91048
LeftLeg  13.1853 2.99341 0.499347
LeftFoot  10.2686 -0.0420026 0.467455
LeftToes  -23.9942 2.48695e-006 -1.03773e-007
Spine  3.93177 0.510237 3.03567
Spine1  7.63926 0.950399 5.71735
RightShoulder  0.151129 7.0347 8.74592
RightArm  -38.7753 -11.3596 60.5235
RightForeArm  28.266 14.2785 2.5683
RightHand  0.533156 -6.419 -9.10697
LeftShoulder1  0.0145527 -0.0671542 -8.34583
LeftArm  5.14692 4.36477 -80.0604
LeftForeArm  30.7984 -28.8454 -5.56434
LeftHand  0.00451806 -0.722229 -1.09732
HEad  3.41691 28.6747 -2.481
RightUpLeg  -11.7775 -15.1022 6.83272
RightLeg  11.3478 -2.98094 -0.399436
RightFoot  -2.83828 -0.00503921 0.117393
RightToes  -17.2082 -0.0663036 -0.152496
183
root  43.0026 34.6763 57.2039 -171.16 32.5611 -178.382
LeftUpLeg  -17.6621 13.4295 9.27753
LeftLeg  13.754 9.33278 1.64839
LeftFoot  10.0708 -0.14076 1.59742
LeftToes  -19.5388 2.48695e-006 -1.03773e-007
Spine  3.9851 0.515361 3.059
Spine1  7.73982 0.951958 5.76977
RightShoulder  0.151047 6.98077 8.88603
RightArm  -39.039 -11.4271 60.4279
RightForeArm  27.8139 14.2065 2.55503
RightHand  0.522048 -6.49992 -8.79525
LeftShoulder1  0.0148 0.142501 -8.70432
LeftArm  5.66386 4.97719 -79.3292
LeftForeArm  30.5518 -29.6702 -5.7568
LeftHand  0.0368479 -1.87455 -2.63173
HEad  3.48824 28.5739 -2.2231
RightUpLeg  -11.5653 -14.6119 6.78798
RightLeg  11.1499 -3.8584 -0.503577
RightFoot  -2.80104 -0.00570577 0.156962
RightToes  -16.782 -0.0653958 -0.150458
184
root  42.9974 34.6915 57.2433 -171.318 31.7473 -178.63
LeftUpLeg  -17.775 16.0364 8.50369
LeftLeg  13.9447 15.067 2.69318
LeftFoot  10.431 -0.252635 2.76714
LeftToes  -17.4192 2.48695e-006 -1.03773e-007
Spine  3.94314 0.325013 3.10241
Spine1  7.65238 0.570154 5.84917
RightShoulder  0.150162 6.91979 8.86505
RightArm  -39.1707 -11.4821 60.6838
RightForeArm  27.88 14.2161 2.55679
RightHand  0.502558 -6.49361 -8.463
LeftShoulder1  0.015125 0.442135 -8.86685
LeftArm  4.92483 5.34852 -78.9428
LeftForeArm  30.6808 -29.5224 -5.72202
LeftHand  0.0163879 -1.40332 -1.71651
HEad  3.40654 28.633 -2.22851
RightUpLeg  -11.6288 -15.1497 6.68623
RightLeg  11.1535 -4.13737 -0.540252
RightFoot  -2.75965 -0.00501814 0.16926
RightToes  -16.7301 -0.0646427 -0.149166
185
root  42.9857 34.6997 57.2789 -170.755 30.8922 -178.53
LeftUpLeg  -18.2713 18.0845 8.03213
LeftLeg  13.7632 18.8855 3.29207
LeftFoot  11.1688 -0.371085 3.79388
LeftToes  -17.0092 2.48695e-006 -1.03773e-007
Spine  3.69828 0.154734 3.24318
Spine1  7.17637 0.234437 6.12304
RightShoulder  0.148814 6.87133 8.76815
RightArm  -38.8232 -11.8403 61.11
RightForeArm  27.7129 14.4839 2.60708
RightHand  0.494012 -6.39866 -8.44188
LeftShoulder1  0.0155737 0.524276 -8.67629
LeftArm  2.92676 5.93818 -78.9961
LeftForeArm  30.3508 -28.982 -5.59623
LeftHand  0.00040704 0.078737 0.204874
HEad  3.16057 28.6262 -2.39886
RightUpLeg  -12.2072 -15.7205 7.01703
RightLeg  11.0781 -4.29006 -0.554444
RightFoot  -2.71473 -0.00423926 0.175869
RightToes  -16.2452 -0.0640447 -0.148113
186
root  43.0152 34.7004 57.2694 -170.44 30.6318 -178.413
LeftUpLeg  -17.9766 19.8678 7.8569
LeftLeg  12.7322 20.5577 3.20003
LeftFoot  12.8597 -0.540198 4.79068
LeftToes  -19.3577 2.48695e-006 -1.03773e-007
Spine  3.53168 0.152841 3.31352
Spine1  6.85923 0.235521 6.27416
RightShoulder  0.147499 6.72707 8.8538
RightArm  -38.3137 -12.1559 61.7009
RightForeArm  27.5034 14.8113 2.66874
RightHand  0.478922 -6.25707 -8.36652
LeftShoulder1  0.0161917 0.481404 -8.49823
LeftArm  0.903356 6.4471 -78.7857
LeftForeArm  29.581 -27.6682 -5.29596
LeftHand  0.0176845 0.653238 2.70263
HEad  2.90383 28.56 -2.48852
RightUpLeg  -12.3246 -15.5729 7.21051
RightLeg  10.8632 -4.62533 -0.580115
RightFoot  -2.6576 -0.00398429 0.19023
RightToes  -16.0853 -0.0636022 -0.14732
187
root  43.0443 34.6943 57.2314 -170.241 30.4295 -178.268
LeftUpLeg  -17.3996 20.4889 7.94951
LeftLeg  11.4107 20.1812 2.6795
LeftFoot  15.0105 -0.720187 5.46243
LeftToes  -22.6422 2.48695e-006 -1.03773e-007
Spine  3.40731 0.138003 3.37927
Spine1  6.62168 0.211921 6.41237
RightShoulder  0.145873 6.61199 8.98393
RightArm  -37.9404 -12.3734 62.4084
RightForeArm  27.3812 15.1272 2.72839
RightHand  0.461512 -6.2832 -8.01518
LeftShoulder1  0.0170251 0.42737 -8.40228
LeftArm  -1.24373 6.65986 -78.4264
LeftForeArm  29.4667 -25.6748 -4.85371
LeftHand  0.0379245 0.897244 4.43619
HEad  2.69577 28.4577 -2.59234
RightUpLeg  -12.3501 -15.6101 7.36091
RightLeg  10.8344 -4.70814 -0.588088
RightFoot  -2.73215 -0.0037731 0.203973
RightToes  -16.0427 -0.0633155 -0.146811
188
root  43.031 34.6865 57.2024 -170.047 30.0034 -178.09
LeftUpLeg  -16.9057 19.3985 8.23655
LeftLeg  10.2619 19.8703 2.24415
LeftFoot  15.3349 -0.737779 5.47608
LeftToes  -22.943 2.48695e-006 -1.03773e-007
Spine  3.29418 0.0452062 3.47025
Spine1  6.40116 0.0323444 6.59439
RightShoulder  0.143424 6.41195 9.07669
RightArm  -37.7284 -12.3872 63.2786
RightForeArm  27.3589 15.3612 2.77267
RightHand  0.447217 -6.24662 -7.80382
LeftShoulder1  0.0181195 0.417832 -8.35256
LeftArm  -3.50274 6.3962 -78.0435
LeftForeArm  30.3958 -22.8971 -4.26168
LeftHand  0.0587491 1.35855 4.55879
HEad  2.59993 28.3999 -2.71518
RightUpLeg  -12.4913 -15.7959 7.52063
RightLeg  10.9613 -4.87272 -0.619588
RightFoot  -2.82715 -0.00412277 0.224208
RightToes  -16.0328 -0.0631848 -0.146606
189
root  43.0121 34.6791 57.1729 -169.764 29.8731 -177.808
LeftUpLeg  -16.3798 17.933 8.63979
LeftLeg  9.02739 21.0402 1.92308
LeftFoot  15.8538 -0.838583 6.01713
LeftToes  -23.6543 2.48695e-006 -1.03773e-007
Spine  3.20825 0.0442725 3.57144
Spine1  6.23429 0.0208963 6.82203
RightShoulder  0.139512 6.28771 9.04318
RightArm  -37.5863 -12.3921 64.2725
RightForeArm  27.2255 15.6084 2.8196
RightHand  0.435218 -6.19782 -7.64773
LeftShoulder1  0.019521 0.385074 -8.31227
LeftArm  -5.59506 5.9374 -77.5909
LeftForeArm  31.8433 -19.8068 -3.6315
LeftHand  0.0718175 1.81001 4.15805
HEad  2.63638 28.2953 -2.82426
RightUpLeg  -12.6118 -15.4585 7.72404
RightLeg  10.9892 -5.27141 -0.672813
RightFoot  -2.82417 -0.00490997 0.248105
RightToes  -16.1028 -0.0632107 -0.146729
190
root  42.986 34.6712 57.1465 -169.559 29.8393 -177.543
LeftUpLeg  -15.8583 16.4016 9.01499
LeftLeg  7.95812 22.552 1.64181
LeftFoot  16.154 -0.939736 6.61475
LeftToes  -23.4851 2.48695e-006 -1.03773e-007
Spine  3.19272 0.0412349 3.64083
Spine1  6.19709 0.0150361 7.00063
RightShoulder  0.136813 6.2424 8.96597
RightArm  -37.2922 -12.2802 65.3414
RightForeArm  27.0162 15.8256 2.86096
RightHand  0.430159 -6.21884 -7.5281
LeftShoulder1  0.0212752 0.242004 -8.23141
LeftArm  -7.49969 5.57942 -76.9859
LeftForeArm  33.2272 -17.0853 -3.09726
LeftHand  0.0903864 2.41074 3.91253
HEad  2.76478 28.1886 -2.76548
RightUpLeg  -12.6302 -15.1182 7.88342
RightLeg  10.9243 -5.60872 -0.709321
RightFoot  -2.76634 -0.00545721 0.264229
RightToes  -16.1506 -0.0633935 -0.147201
191
root  42.9427 34.6677 57.1195 -169.45 29.8732 -177.365
LeftUpLeg  -15.6219 15.8163 9.10771
LeftLeg  7.47169 23.3179 1.50121
LeftFoot  15.9546 -0.952057 6.78596
LeftToes  -22.4716 2.48695e-006 -1.03773e-007
Spine  3.21539 0.0415598 3.6551
Spine1  6.2336 -0.00883818 7.06194
RightShoulder  0.134574 6.24732 8.94136
RightArm  -36.8727 -12.0265 66.4015
RightForeArm  27.1749 15.9296 2.88071
RightHand  0.410712 -6.14997 -7.2564
LeftShoulder1  0.0244919 0.133007 -8.2103
LeftArm  -9.06317 5.50186 -76.1746
LeftForeArm  34.1274 -15.1732 -2.73168
LeftHand  0.112894 2.88065 4.10783
HEad  3.06032 28.1745 -2.53997
RightUpLeg  -12.5723 -14.7811 7.9279
RightLeg  10.7804 -5.89224 -0.730064
RightFoot  -2.61975 -0.00553177 0.268052
RightToes  -16.493 -0.0637335 -0.148044
192
root  42.8763 34.6743 57.0943 -169.426 30.0341 -177.305
LeftUpLeg  -15.7485 16.3205 8.92
LeftLeg  7.70144 23.1185 1.57962
LeftFoot  15.5848 -0.900906 6.57617
LeftToes  -21.662 2.48695e-006 -1.03773e-007
Spine  3.26556 0.0540738 3.60884
Spine1  6.33304 0.0146071 6.99894
RightShoulder  0.131636 6.20619 8.85718
RightArm  -36.2641 -11.6722 67.5083
RightForeArm  27.5078 16.0097 2.89583
RightHand  0.381974 -6.03945 -6.8538
LeftShoulder1  0.0261201 0.106953 -8.2467
LeftArm  -10.557 5.69909 -75.3128
LeftForeArm  34.907 -14.2621 -2.55966
LeftHand  0.132634 3.06668 4.57151
HEad  3.38079 28.2723 -2.41079
RightUpLeg  -12.5346 -14.7589 7.84425
RightLeg  10.6749 -5.76427 -0.703488
RightFoot  -2.44716 -0.00458873 0.250199
RightToes  -16.7772 -0.064231 -0.150418
193
root  42.7805 34.6913 57.0629 -169.492 30.3112 -177.375
LeftUpLeg  -16.1133 17.0895 8.57237
LeftLeg  8.51744 22.6411 1.86438
LeftFoot  15.1607 -0.834685 6.26594
LeftToes  -21.1271 2.48695e-006 -1.03773e-007
Spine  3.34388 0.102507 3.49352
Spine1  6.49557 0.113815 6.79386
RightShoulder  0.12695 6.1405 8.75074
RightArm  -35.5508 -11.3347 68.609
RightForeArm  27.7791 16.1809 2.92838
RightHand  0.365334 -5.94289 -6.65196
LeftShoulder1  0.0273271 0.0795203 -8.32233
LeftArm  -11.9425 6.05546 -74.4581
LeftForeArm  35.3084 -13.8651 -2.48511
LeftHand  0.145979 3.1106 4.99136
HEad  3.57411 28.3877 -2.40663
RightUpLeg  -12.5251 -14.9526 7.60357
RightLeg  10.634 -5.31939 -0.645455
RightFoot  -2.25034 -0.00314068 0.217709
RightToes  -17.0573 -0.065669 -0.15262
